<svg width="70" height="70" viewBox="0 0 70 70" fill="none" xmlns="http://www.w3.org/2000/svg">
    <path d="M66.021 66.0672C64.1007 67.9889 61.5961 68.8338 58.9162 68.9952C52.5671 69.3743 45.8432 68.7007 39.4537 68.9871C34.7326 68.9589 30.1264 65.0912 29.7194 60.3141C29.1149 53.2321 30.1829 45.2932 29.7255 38.1205C30.5717 33.1014 34.4082 29.8992 39.4456 29.5846C45.8794 29.1833 52.7303 29.8972 59.2084 29.5927C64.9389 29.9879 68.6183 33.9403 68.9447 39.6208C69.3134 46.0332 68.6545 52.8006 68.9366 59.2494C68.7472 61.7902 67.8344 64.2503 66.019 66.0652L66.021 66.0672ZM43.8624 41.4033C41.3337 41.8288 41.38 45.8538 43.9914 46.1825C47.8642 46.6705 47.7715 40.7439 43.8624 41.4033ZM53.5141 41.4013C49.998 42.0567 52.2386 47.9892 55.5049 45.8074C57.6992 44.3414 56.3471 40.873 53.5141 41.4013ZM56.5708 49.9694H41.9402C42.5305 59.5418 56.0409 59.5741 56.5708 49.9694Z" fill="#F5C63A"/>
    <path d="M39.5281 24.763C31.5046 24.6097 24.7383 31.4094 24.7464 39.4048L8.82817 39.4088C4.56451 38.9329 1.10481 35.4968 0.327038 31.3126C0.365322 24.3597 -0.287536 16.8079 0.153741 9.88923C0.462031 5.05164 3.61344 1.25255 8.39898 0.328992C15.3446 0.361256 22.8926 -0.286041 29.8039 0.153557C35.2746 0.502412 39.1836 4.41644 39.5322 9.88923L39.5261 24.765L39.5281 24.763ZM14.2988 12.5712C11.9715 13.0511 12.0138 16.9591 14.5748 17.3563C18.4133 17.9532 18.4818 11.7061 14.2988 12.5712ZM24.1016 12.5712C23.5837 12.6781 22.8523 13.3254 22.6045 13.7892C21.3814 16.0597 24.1016 18.4594 26.179 16.9127C28.2564 15.3661 26.7674 12.0187 24.1036 12.5712H24.1016ZM27.1603 27.1767C26.7916 17.5943 12.9246 17.5802 12.6808 27.1767H27.1603Z" fill="#F5F5F7"/>
    <path d="M56.5706 49.9692C56.0427 59.5738 42.5303 59.5416 41.9399 49.9692H56.5706Z" fill="#1E2731"/>
    <path d="M43.8624 41.4033C47.7694 40.7459 47.8621 46.6704 43.9913 46.1824C41.382 45.8537 41.3356 41.8288 43.8624 41.4033Z" fill="#1E2731"/>
    <path d="M53.514 41.4013C56.347 40.875 57.7011 44.3434 55.5048 45.8073C52.2385 47.9872 49.9959 42.0546 53.514 41.4013Z" fill="#1E2731"/>
    <path d="M27.1602 27.1767H12.6807C12.9245 17.5802 26.7914 17.5943 27.1602 27.1767Z" fill="#1E2731"/>
    <path d="M14.2988 12.5713C18.4819 11.7082 18.4134 17.9533 14.5749 17.3565C12.0139 16.9592 11.9716 13.0512 14.2988 12.5713Z" fill="#1E2731"/>
    <path d="M24.1015 12.5713C26.7673 12.0188 28.349 15.2956 26.1769 16.9128C24.0048 18.5301 21.3793 16.0599 22.6024 13.7893C22.8522 13.3255 23.5837 12.6802 24.0995 12.5713H24.1015Z" fill="#1E2731"/>
</svg>
