<svg width="75" height="65" viewBox="0 0 75 65" fill="none" xmlns="http://www.w3.org/2000/svg">
    <path d="M46 55.9782H31.7998C31.4117 55.5103 31.4621 54.7873 31.2713 54.1918C30.2998 51.162 28.3348 48.6708 25.3654 47.0627C17.2181 42.6536 7.03126 47.4212 5.93691 55.9701C3.79867 55.9903 1.09241 56.3366 0.245887 54.0399C-0.249748 38.929 0.184481 23.7351 0.0265792 8.59589C0.0550892 4.10779 3.39514 0.476398 8.3164 0.180702C17.9243 -0.396513 28.2032 0.634373 37.8812 0.180702C41.184 -0.0339814 46 3.74728 46 6.78323V55.9782Z" fill="#F5C63A"/>
    <path d="M74.6187 36.3069V53.7397C74.6187 54.9621 72.8313 56.6765 71.5115 56.2785C70.6352 48.2072 62.8542 43.1864 55.0315 45.4322C53.7707 45.7952 52.7416 46.449 51.5573 46.9476V36.309H74.6187V36.3069Z" fill="#F5C63A"/>
    <path d="M74.6187 30.5777H51.5573V19.1191H67.0146C70.7139 19.1191 74.6208 23.7747 74.6208 27.385V30.5777H74.6187Z" fill="#F5F5F7"/>
    <path d="M58.399 50.5885C68.4417 50.2058 68.3062 65.8433 58.021 64.9511C49.3549 64.1989 49.6805 50.9209 58.399 50.5885Z" fill="#F5F5F7"/>
    <path d="M17.3324 50.7528C28.4763 49.2439 28.5572 66.0382 17.7825 64.9492C9.66273 64.1292 9.65836 51.7915 17.3324 50.7528Z" fill="#F5F5F7"/>
</svg>
