<svg width="69" height="69" viewBox="0 0 69 69" fill="none" xmlns="http://www.w3.org/2000/svg">
    <path d="M33.5872 0.0339562C36.0555 -0.163661 37.869 0.513884 39.9404 1.7379C41.5282 2.67558 44.8851 5.48053 46.2835 5.95643C51.2746 7.65634 56.3241 6.36779 59.8341 11.5643C62.0566 14.8532 61.5267 19.0839 62.7719 22.5099C63.5457 24.6373 66.6447 27.7992 67.761 30.1968C69.0486 32.9574 69.0465 36.1052 67.6864 38.8396C66.554 41.1121 63.6525 44.0804 62.8445 46.222C61.3675 50.138 62.1997 54.6469 59.1108 58.1839C55.3609 62.477 50.7507 61.1824 46.2029 62.9267C44.2323 63.6829 41.2965 66.4152 39.1989 67.5404C36.2651 69.1153 32.9424 69.2424 29.9381 67.7461C27.6673 66.6128 24.7033 63.7111 22.5613 62.9005C18.614 61.4082 14.1932 62.2612 10.6086 59.1639C6.32879 55.4636 7.59418 50.7732 5.86937 46.2462C5.12182 44.2841 2.37948 41.3299 1.25916 39.2368C-0.256094 36.4076 -0.439456 33.2175 0.906539 30.2755C2.02887 27.8214 5.03719 24.8652 5.89557 22.5885C7.37253 18.6725 6.54036 14.1636 9.6293 10.6266C13.3509 6.36578 17.9229 7.62811 22.4545 5.95239C24.4695 5.2083 27.6008 2.23598 29.8414 1.11682C30.9577 0.560264 32.34 0.132765 33.5852 0.0339562H33.5872ZM32.5314 9.99548C13.6572 11.3788 3.40105 33.1833 14.4914 48.6398C24.9793 63.2574 47.2144 61.9083 55.8163 46.1272C65.1053 29.0877 51.7723 8.58393 32.5314 9.99548Z" fill="#F5C63A"/>
    <path d="M32.5314 9.99557C51.7722 8.58402 65.1032 29.0878 55.8163 46.1273C47.2144 61.9064 24.9793 63.2575 14.4914 48.6398C3.40103 33.1833 13.6572 11.3789 32.5314 9.99557ZM33.8915 14.8211C18.8659 15.1598 9.89929 31.8121 17.7173 44.6552C25.5354 57.4983 43.4505 57.0083 51.0267 44.6552C59.1188 31.4613 49.2979 14.4722 33.8915 14.8211Z" fill="#FEFEFE"/>
    <path d="M33.8916 14.821C49.298 14.4721 59.1189 31.4632 51.0268 44.6551C43.4506 57.0082 25.2534 57.0365 17.7175 44.6551C10.1815 32.2738 18.868 15.1597 33.8916 14.821ZM41.2341 26.7082L32.7672 35.1473L27.6391 30.1887C27.351 30.1383 24.6127 33.1812 24.119 33.5744L31.1311 40.5919C31.9995 41.2694 33.3979 41.2553 34.2261 40.5213L44.6273 30.102L41.2361 26.7082H41.2341Z" fill="#1E2731"/>
    <path d="M41.234 26.7083L44.6252 30.102L34.224 40.5213C33.3959 41.2573 31.9975 41.2694 31.129 40.5919L24.1169 33.5744C24.6106 33.1812 27.3489 30.1383 27.6371 30.1887L32.7652 35.1473L41.232 26.7083H41.234Z" fill="#FEFEFE"/>
</svg>
