<svg width="59" height="70" viewBox="0 0 59 70" fill="none" xmlns="http://www.w3.org/2000/svg">
    <path d="M58.2204 18.7943H0V8.002C0 3.23902 4.2012 0.444143 8.51524 0.220311C22.0759 -0.481432 36.2331 0.766783 49.8562 0.220311C54.0877 0.0791558 58.2204 3.65442 58.2204 8.002V18.7943Z" fill="#F5C63A"/>
    <path d="M58.2205 24.0776V61.5866C58.2205 65.1498 54.3134 69.0578 50.755 69.0578H47.7386C47.7225 69.0578 47.5129 68.848 47.5129 68.8319V24.0776H58.2225H58.2205Z" fill="#F5F5F7"/>
    <path d="M23.833 69.0596V49.1345H42.1591C42.1752 49.1345 42.3848 49.3442 42.3848 49.3604V68.8317C42.3848 68.8479 42.1752 69.0576 42.1591 69.0576H23.833V69.0596Z" fill="#F5C63A"/>
    <path d="M18.554 24.0776H0.00219727V43.8515H18.554V24.0776Z" fill="#F5C63A"/>
    <path d="M42.3848 24.0776H23.833V43.8515H42.3848V24.0776Z" fill="#F5C63A"/>
    <path d="M18.554 49.1345V69.0596H7.76989C3.93139 69.0596 0.00219727 65.319 0.00219727 61.4372V49.3624C0.00219727 49.3463 0.211752 49.1365 0.227872 49.1365H18.554V49.1345Z" fill="#F5C63A"/>
</svg>
