<svg width="65" height="40" viewBox="0 0 65 40" fill="none" xmlns="http://www.w3.org/2000/svg">
    <path d="M19.5116 31.6548C17.9603 27.7811 17.6573 23.3935 19.325 19.4995C20.8574 15.9085 23.7681 13.0858 27.4037 11.6629C30.8554 10.2833 34.894 10.4186 38.2916 11.8969C41.7271 13.4172 44.4281 16.2264 45.8144 19.7186C47.2049 23.2745 47.3807 27.0792 45.8036 30.6133C45.621 31.0218 45.4209 31.4357 45.195 31.8225C45.5967 31.9064 45.9984 31.9956 46.3974 32.0903C46.6476 31.5534 46.8694 31.0286 47.4672 30.8027C48.1543 30.543 48.997 30.8433 49.6245 31.153C51.2408 31.9496 52.3959 33.3144 53.7944 34.3991C54.9819 35.1511 56.4494 35.5907 57.7479 36.133C60.242 37.1745 62.782 38.3783 64.9894 39.9486C63.2392 39.3494 61.4795 38.734 59.705 38.2092C56.9337 37.4125 54.1407 36.6984 51.3274 36.0695C47.593 35.1971 43.8208 34.3666 40.0066 33.9298C31.9252 33.006 22.2749 33.831 14.376 35.6177C11.4532 36.2724 8.55878 37.0514 5.70087 37.9509L1.77986 39.2209C1.19827 39.4048 0.604504 39.6388 0.00668213 39.7551L0.00262451 39.6821C0.504416 39.5022 0.889889 39.156 1.35787 38.9166C2.89706 38.1226 4.44436 37.3449 5.99978 36.5834C7.01689 36.0911 8.05023 35.6529 9.09303 35.2201C9.93566 34.8711 10.8567 34.5546 11.6236 34.0583C11.6466 34.0434 11.6683 34.0285 11.6913 34.0136C11.767 33.9189 11.8441 33.8256 11.9239 33.7336C13.1993 32.2621 14.6723 31.5615 16.4454 30.8663C16.7809 30.7351 17.165 30.5038 17.5248 30.4794C17.7966 30.7919 17.986 31.5101 18.1686 31.9077C18.6217 31.8563 19.068 31.7481 19.5143 31.6521L19.5116 31.6548ZM25.3587 27.6039C25.3789 28.6752 25.3884 29.7491 25.4412 30.8189C28.3234 30.6147 31.1786 30.3861 34.0731 30.4524C35.5514 30.4862 37.0162 30.7567 38.4918 30.7648L39.3114 27.5485C37.2948 25.2749 34.7656 23.3353 32.6948 21.1361C31.0407 22.4724 29.4731 23.8993 27.8947 25.3236C27.0547 26.0823 26.1688 26.8141 25.3587 27.6026V27.6039ZM22.0287 31.2558L21.6919 30.5335C22.2654 30.0317 23.0499 29.4867 23.25 28.7238C22.5981 28.9186 21.9286 29.5124 21.4214 29.9601C20.714 28.1666 20.4692 26.3704 20.4557 24.4498C21.1874 24.5229 23.2771 24.6662 23.8573 24.3254L23.86 24.2118C23.4151 23.7573 21.2334 23.7641 20.568 23.7181C20.7397 22.6807 20.9629 21.6731 21.3578 20.6938C21.3822 20.6965 21.4079 20.6979 21.4322 20.7006C22.3073 20.7872 24.4349 21.7326 25.1544 21.4675L25.1963 21.3593C24.9705 20.9454 24.4186 20.7385 23.9899 20.614C23.2298 20.3922 22.379 20.2894 21.5891 20.2231C22.4304 18.5352 23.5868 16.8932 25.1071 15.7462C25.6427 16.4347 26.2946 17.4504 27.1575 17.7304L27.2982 17.702C27.3591 17.5073 27.2968 17.3476 27.2062 17.1705C26.8627 16.4901 26.2324 15.8869 25.6887 15.3635C27.025 14.5276 28.4424 13.731 30.0046 13.4145C30.0479 14.1408 30.0628 15.9681 30.5253 16.4753C30.5402 16.4928 30.5605 16.505 30.5767 16.5212C30.7255 16.4685 30.6795 16.5131 30.7512 16.3752C31.1732 15.5488 30.712 14.1787 30.6444 13.2873C31.8089 13.1751 33.0627 13.0114 34.2218 13.2278C34.0474 13.8933 33.6037 15.3297 33.9351 15.9883C33.9473 16.0127 33.9649 16.0357 33.9784 16.0587L34.1069 16.079C34.7209 15.6164 34.8399 14.2138 34.94 13.5091L34.9657 13.3225C36.3183 13.7147 37.5207 14.1746 38.7569 14.8509C38.0509 15.7976 37.2732 16.7431 37.004 17.9198C38.0766 17.2597 38.5716 16.1209 39.283 15.1322C41.3145 16.6808 42.7712 18.3823 43.8032 20.7303C42.6928 21.2281 41.5864 21.6555 40.6897 22.5008C41.8759 22.2398 42.9105 21.7096 43.9926 21.174C44.2685 22.0396 44.3442 22.9147 44.566 23.783C43.7018 23.6883 42.6035 23.5734 41.7663 23.8831L41.7933 24.0928C42.6495 24.5256 43.8005 24.5445 44.7392 24.6689C44.7662 26.5179 44.5688 28.0219 43.8465 29.7423C43.6139 30.2968 43.3204 30.8392 43.1067 31.3992C43.4299 31.46 43.7559 31.5358 44.0832 31.575C44.2631 31.2342 44.4376 30.8893 44.6053 30.543C46.0552 27.4944 46.2297 23.9927 45.0881 20.8156C43.8506 17.3666 41.2916 14.552 37.9765 12.9911C34.8318 11.5601 31.2476 11.4398 28.0137 12.6557C24.6215 13.9163 21.8759 16.4847 20.3921 19.7876C18.5649 23.7641 19.1221 27.5201 20.5869 31.4844C21.0657 31.4898 21.5594 31.3532 22.0274 31.2571L22.0287 31.2558ZM23.0999 27.5674C23.3731 27.2915 23.6639 27.0345 23.9507 26.7735C25.8943 25.1545 27.7959 23.4841 29.653 21.7664C30.6051 20.8967 31.5452 19.9161 32.5758 19.1425C35.1862 21.6 37.6573 24.2037 40.3461 26.5814C40.7005 26.9114 41.0603 27.2388 41.4079 27.5755C41.7663 27.9286 42.1274 28.1598 42.5724 28.3857C42.1721 27.4335 41.1888 26.5706 40.4692 25.8456C38.811 24.1766 37.0743 22.582 35.3553 20.9765C34.4315 20.1136 33.3927 19.2655 32.6001 18.2809C30.4428 20.376 28.0867 22.3263 25.8199 24.3024C24.9258 25.0828 23.5828 26.012 22.9133 26.9669C22.8754 27.1995 22.9958 27.3672 23.0999 27.5661V27.5674ZM40.2487 30.9312C40.2623 30.1183 40.3705 29.1255 40.622 28.3519L40.1446 28.099C39.866 28.9822 39.8592 29.9533 39.6333 30.8541L40.2474 30.9312H40.2487Z" fill="#F5C63A"/>
    <path d="M30.194 25.801C30.969 25.7591 31.7602 25.7834 32.5379 25.7807C32.5014 27.0034 32.5352 28.2437 32.5609 29.4664C31.7548 29.4542 30.95 29.4664 30.1453 29.5029L30.1953 25.8024L30.194 25.801Z" fill="#F5C63A"/>
    <path d="M33.0492 25.7834L35.0996 25.7875C35.0415 26.9994 35.0685 28.2275 35.078 29.4407C34.4071 29.4732 33.7281 29.461 33.0546 29.4813C33.0749 28.2505 33.0505 27.0156 33.0478 25.7834H33.0492Z" fill="#F5C63A"/>
    <path d="M30.6444 13.286C31.8089 13.1737 33.0627 13.0101 34.2218 13.2265C34.0474 13.8919 33.6037 15.3283 33.9351 15.987C33.9473 16.0113 33.9649 16.0343 33.9784 16.0573L34.1069 16.0776C34.7209 15.615 34.8399 14.2125 34.94 13.5078L34.9657 13.3211C36.3183 13.7134 37.5207 14.1732 38.7569 14.8495C38.0509 15.7963 37.2732 16.7417 37.004 17.9184C38.0766 17.2584 38.5716 16.1195 39.283 15.1308C41.3145 16.6795 42.7712 18.381 43.8032 20.729C42.6928 21.2267 41.5864 21.6541 40.6897 22.4995C41.8758 22.2384 42.9105 21.7082 43.9926 21.1726C44.2685 22.0382 44.3442 22.9133 44.566 23.7817C43.7018 23.687 42.6035 23.572 41.7663 23.8818L41.7933 24.0914C42.6495 24.5242 43.8005 24.5432 44.7392 24.6676C44.7662 26.5165 44.5688 28.0205 43.8465 29.741C43.6139 30.2955 43.3204 30.8379 43.1067 31.3978C42.1869 31.1178 41.2009 31.0299 40.2474 30.9298C40.2609 30.117 40.3691 29.1242 40.6207 28.3505C40.9169 28.1044 41.0562 27.7947 41.4052 27.5728C41.7636 27.9258 42.1247 28.1571 42.5697 28.383C42.1693 27.4308 41.1861 26.5679 40.4665 25.8429C38.8083 24.1739 37.0716 22.5793 35.3526 20.9738C34.4288 20.1109 33.39 19.2628 32.5974 18.2782C30.4401 20.3733 28.084 22.3236 25.8172 24.2997C24.9231 25.0801 23.5801 26.0093 22.9106 26.9642C22.8727 27.1968 22.9931 27.3645 23.0972 27.5634C23.1689 27.9286 23.1297 28.3803 23.2473 28.7198C22.5954 28.9146 21.9259 29.5083 21.4187 29.956C20.7113 28.1625 20.4665 26.3664 20.453 24.4458C21.1847 24.5188 23.2744 24.6622 23.8546 24.3213L23.8573 24.2077C23.4124 23.7533 21.2307 23.76 20.5653 23.714C20.737 22.6766 20.9602 21.669 21.3551 20.6898C21.3795 20.6925 21.4052 20.6938 21.4295 20.6965C22.3046 20.7831 24.4322 21.7285 25.1517 21.4634L25.1936 21.3552C24.9678 20.9413 24.4159 20.7344 23.9872 20.61C23.2271 20.3882 22.3763 20.2854 21.5864 20.2191C22.4277 18.5311 23.5841 16.8891 25.1044 15.7422C25.64 16.4306 26.2919 17.4464 27.1548 17.7264L27.2955 17.698C27.3564 17.5032 27.2941 17.3436 27.2035 17.1664C26.86 16.4861 26.2297 15.8828 25.686 15.3594C27.0223 14.5235 28.4397 13.7269 30.0019 13.4104C30.0452 14.1367 30.0601 15.964 30.5226 16.4712C30.5375 16.4888 30.5578 16.501 30.574 16.5172C30.7228 16.4644 30.6768 16.5091 30.7485 16.3711C31.1705 15.5447 30.7093 14.1746 30.6417 13.2833L30.6444 13.286Z" fill="#F5C63A"/>
    <path d="M19.5116 31.6548C17.9603 27.7811 17.6573 23.3935 19.325 19.4995C20.8574 15.9085 23.7681 13.0858 27.4037 11.6629C30.8554 10.2833 34.894 10.4186 38.2916 11.8969C41.7271 13.4172 44.4281 16.2264 45.8144 19.7186C47.2048 23.2745 47.3807 27.0792 45.8036 30.6133C45.621 31.0218 45.4208 31.4357 45.195 31.8225L44.0845 31.575C44.2644 31.2342 44.4389 30.8893 44.6066 30.543C46.0565 27.4944 46.231 23.9927 45.0895 20.8156C43.8519 17.3666 41.2929 14.552 37.9778 12.9911C34.8332 11.5601 31.249 11.4398 28.015 12.6557C24.6229 13.9163 21.8772 16.4847 20.3935 19.7876C18.5662 23.7641 19.1235 27.5201 20.5883 31.4844L19.5116 31.6561V31.6548Z" fill="#F5C63A"/>
    <path d="M32.5758 19.1425C35.1862 21.6 37.6572 24.2037 40.3461 26.5814C40.7005 26.9114 41.0602 27.2388 41.4078 27.5755C41.0589 27.7974 40.9182 28.1071 40.6234 28.3533L40.1459 28.1003C39.8673 28.9835 39.8605 29.9547 39.6347 30.8554C39.2681 30.8757 38.861 30.8027 38.4918 30.7662L39.3114 27.5498C37.2948 25.2762 34.7655 23.3367 32.6948 21.1375C31.0406 22.4738 29.473 23.9007 27.8946 25.3249C27.0547 26.0837 26.1688 26.8154 25.3586 27.6039C25.3789 28.6752 25.3884 29.7491 25.4411 30.8189C25.149 30.8419 24.8582 30.8622 24.5674 30.8987C23.7234 31.034 22.8794 31.1787 22.0287 31.2558L21.6919 30.5335C22.2654 30.0318 23.0498 29.4867 23.25 28.7238C23.1323 28.3844 23.1716 27.9313 23.0999 27.5674C23.3731 27.2915 23.6639 27.0345 23.9506 26.7735C25.8942 25.1545 27.7959 23.4841 29.6529 21.7664C30.6051 20.8967 31.5451 19.9161 32.5758 19.1425Z" fill="#F5C63A"/>
    <path d="M23.0999 27.5674C23.3731 27.2915 23.6639 27.0345 23.9506 26.7735C24.1724 27.0251 24.4118 27.2726 24.6107 27.5404C24.6337 27.8663 24.658 28.1977 24.6418 28.5237C24.6107 29.1769 24.3077 30.3158 24.5674 30.8974C23.7234 31.0326 22.8794 31.1774 22.0287 31.2544L21.6919 30.5322C22.2654 30.0304 23.0498 29.4853 23.25 28.7225C23.1323 28.383 23.1716 27.9299 23.0999 27.5661V27.5674Z" fill="#F5C63A"/>
    <path d="M40.3448 26.5814C40.6991 26.9114 41.0589 27.2388 41.4065 27.5755C41.0576 27.7974 40.9169 28.1071 40.622 28.3533L40.1446 28.1003C40.2596 27.5972 40.3001 27.094 40.3448 26.5814Z" fill="#F5C63A"/>
    <path d="M46.3974 32.0903C46.6476 31.5534 46.8694 31.0286 47.4672 30.8027C48.1543 30.543 48.9969 30.8433 49.6245 31.153C51.2408 31.9496 52.3959 33.3144 53.7944 34.3991C53.5942 34.3991 53.4062 34.3747 53.2128 34.3166C52.381 34.0691 51.5722 33.7161 50.7458 33.4442C49.9897 33.1953 46.8194 32.3689 46.3987 32.089L46.3974 32.0903Z" fill="#F5C63A"/>
    <path d="M11.6885 34.015C11.7643 33.9203 11.8414 33.827 11.9212 33.735C13.1966 32.2634 14.6695 31.5628 16.4427 30.8676C16.7781 30.7364 17.1623 30.5051 17.522 30.4808C17.7939 30.7932 17.9832 31.5114 18.1658 31.9091C16.8999 32.3973 15.5757 32.607 14.2949 33.029C13.4009 33.3238 12.6204 33.8148 11.6899 34.0136L11.6885 34.015Z" fill="#F5C63A"/>
    <path d="M12.8179 38.6704C14.6398 37.8143 16.9932 37.2475 18.9544 36.7701C28.5385 34.4383 39.7672 33.9068 49.1593 37.3016C50.3008 37.7223 51.418 38.2092 52.5041 38.7583C49.8193 38.1713 47.1507 37.6885 44.4146 37.4085C34.4355 36.3887 22.6238 37.468 12.7246 39.1113C12.1471 39.2696 11.4884 39.3102 10.8919 39.3981C11.5262 39.1384 12.1579 38.8598 12.8179 38.6704Z" fill="#F5C63A"/>
    <path d="M13.4469 16.2048C13.6957 16.1777 13.9405 16.175 14.1894 16.1899C15.7786 16.2805 17.2461 17.2516 18.2808 18.4053C17.7033 19.6361 17.3083 20.8737 16.958 22.1857C15.6691 22.3088 14.4044 22.4332 13.1682 21.9801C11.1232 20.9278 9.64351 18.642 7.85681 17.1678C9.85316 17.4586 11.5303 16.5023 13.4469 16.2075V16.2048Z" fill="#F5C63A"/>
    <path d="M50.9662 7.43896L51.0582 7.50388C50.9568 8.31405 50.6646 9.1648 50.5077 9.97497C50.3278 10.9015 50.1939 11.901 49.8342 12.7788C49.1823 14.3734 47.1629 15.6881 45.8509 16.7228C45.4006 16.1344 44.8866 15.5772 44.4064 15.0118C43.764 14.3247 43.1486 13.6038 42.5332 12.8924C44.5579 9.01872 47.7607 9.7004 50.9662 7.44031V7.43896Z" fill="#F5C63A"/>
    <path d="M13.5997 23.9886C14.6005 23.8412 15.6907 24.0197 16.6902 24.1347C16.72 25.6631 16.7633 27.2293 17.1311 28.7198C16.724 29.0255 16.2845 29.2838 15.8205 29.4921C14.2746 30.1697 12.9099 29.9438 11.3815 29.3555C9.79903 28.7144 8.69266 28.126 6.97223 27.8406C7.5714 27.493 8.18681 27.1279 8.73188 26.7004C10.3373 25.4385 11.4762 24.2632 13.5997 23.9886Z" fill="#F5C63A"/>
    <path d="M48.13 23.7587C52.097 23.7019 53.3494 24.7866 56.5711 26.7451C56.9553 26.9385 57.3367 27.136 57.7235 27.3253C57.4746 27.447 57.2258 27.581 56.9634 27.6729C55.2362 28.5764 53.3508 29.7342 51.3531 29.8059C50.1763 29.8478 48.8441 29.5259 47.9677 28.7076C48.1394 27.0196 48.2882 25.4629 48.13 23.7587Z" fill="#F5C63A"/>
    <path d="M56.5712 26.7451C56.9553 26.9385 57.3367 27.136 57.7235 27.3253C57.4747 27.447 57.2258 27.581 56.9634 27.6729C56.7416 27.5228 56.5941 27.4065 56.4684 27.1671C56.4616 26.9574 56.4684 26.929 56.5712 26.7464V26.7451Z" fill="#F5C63A"/>
    <path d="M13.6105 7.95292C14.817 8.46012 15.738 8.69006 16.9905 9.00384C19.6252 9.66253 20.7857 10.819 22.498 12.8315C21.8907 13.4118 21.3024 13.9812 20.7451 14.6115C20.2163 15.2093 19.7591 15.8896 19.2763 16.5267C16.8525 15.634 15.5176 13.9541 14.7845 11.5169C14.418 10.2982 14.1556 9.11205 13.6105 7.95428V7.95292Z" fill="#F5C63A"/>
    <path d="M50.7809 16.386C52.9044 16.3765 54.9116 17.1799 57.0297 17.1434C56.7592 17.3571 56.4886 17.5681 56.229 17.7953C54.3192 19.5847 52.8003 21.7353 50.0195 22.1546C49.3608 22.2533 48.6656 22.2587 48.1164 21.8246C47.2062 21.105 46.9695 19.2412 46.8505 18.1673C46.9681 17.9468 47.0939 17.7399 47.267 17.56C48.1124 16.6836 49.6218 16.4469 50.7809 16.386Z" fill="#F5C63A"/>
    <path d="M50.7809 16.386C52.9044 16.3765 54.9116 17.1799 57.0297 17.1434C56.7592 17.3571 56.4887 17.5681 56.229 17.7953C55.4837 17.6006 51.0082 16.8499 50.877 16.7661C50.7985 16.716 50.7958 16.482 50.7809 16.3873V16.386Z" fill="#F5C63A"/>
    <path d="M22.1247 4.22533C22.1856 3.58152 22.2627 2.92554 22.3776 2.28985C22.8064 2.77405 23.2338 3.22716 23.7829 3.57881C25.6007 4.64056 27.3956 5.79698 27.965 7.95698C28.1205 8.54804 28.1841 9.18103 28.1706 9.79102C26.9127 10.4051 25.3167 11.2626 24.002 11.671C22.7699 10.7229 21.8961 9.50428 21.7 7.92858C21.5472 6.69641 21.8542 5.41827 22.1247 4.22398V4.22533Z" fill="#F5C63A"/>
    <path d="M22.1247 4.22533C22.1856 3.58152 22.2627 2.92554 22.3777 2.28985C22.8064 2.77405 23.2338 3.22716 23.7829 3.57881C23.668 3.65726 23.6517 3.69513 23.5084 3.69513C22.8957 3.69513 22.6103 3.81551 22.1518 4.20639C22.1437 4.21316 22.1329 4.21857 22.1234 4.22533H22.1247Z" fill="#F5C63A"/>
    <path d="M42.9903 1.90032L43.0661 2.01799C43.0322 2.70102 43.1229 3.3597 43.1729 4.03868C43.2906 5.60627 43.3339 7.34834 42.7901 8.8456C42.544 9.52187 41.892 11.0299 41.1793 11.3167C40.4759 11.598 38.7271 10.6769 38.0211 10.3888C37.6681 10.2252 37.2596 10.0723 36.9336 9.86271C36.7632 9.75315 36.678 9.62872 36.6401 9.42854C36.5671 9.04577 36.7051 8.48853 36.8119 8.11658C37.7506 4.88537 41.117 4.343 42.9903 1.90032Z" fill="#F5C63A"/>
    <path d="M32.4135 0C32.4135 0 32.4229 0.00811523 32.427 0.0135254C32.7962 0.450395 32.9802 1.02117 33.2683 1.51078C34.1934 3.08784 35.3782 4.32271 35.3958 6.25955C35.4026 6.93311 35.1956 8.75092 34.6073 9.15803C34.2881 9.3785 33.0681 9.27706 32.6542 9.28382C31.9279 9.29329 31.2029 9.29464 30.4766 9.28517C30.2129 9.04713 30.0059 8.78338 29.8504 8.46283C29.5853 7.91776 29.492 7.3294 29.4825 6.72888C29.4528 4.61215 30.7012 3.37052 31.6899 1.6528C31.9955 1.1199 32.2106 0.578886 32.4148 0L32.4135 0Z" fill="#F5C63A"/>
</svg>
